<svg width="153" height="23" viewBox="0 0 153 23" fill="none" xmlns="http://www.w3.org/2000/svg">
<path d="M6.20696 0.306084V22.6939H0V0.306084H6.20696Z" fill="#F5F5F5"/>
<path d="M28.9305 0.306084V22.6939H23.7506L15.4895 10.9316H15.3555V22.6939H9.14857V0.306084H14.4178L22.5449 12.0247H22.7235V0.306084H28.9305Z" fill="#F5F5F5"/>
<path d="M31.8665 22.6939V0.306084H38.0735V9.05133H46.2899V0.306084H52.4969V22.6939H46.2899V13.9487H38.0735V22.6939H31.8665Z" fill="#F5F5F5"/>
<path d="M61.651 0.306084V22.6939H55.444V0.306084H61.651Z" fill="#F5F5F5"/>
<path d="M64.5926 22.6939V0.306084H74.5059C76.2474 0.306084 77.7099 0.535647 78.8932 0.994773C80.084 1.4539 80.9808 2.1025 81.5836 2.94059C82.1939 3.77868 82.499 4.76616 82.499 5.90304C82.499 6.72655 82.313 7.47719 81.9409 8.15494C81.5762 8.8327 81.0627 9.40114 80.4003 9.86027C79.7379 10.3121 78.9639 10.6255 78.0783 10.8004V11.019C79.0607 11.0555 79.9537 11.2996 80.7575 11.7514C81.5613 12.196 82.2013 12.8118 82.6777 13.5989C83.154 14.3786 83.3921 15.2969 83.3921 16.3536C83.3921 17.5779 83.0647 18.6675 82.4097 19.6221C81.7622 20.5768 80.8394 21.3275 79.6412 21.8741C78.4429 22.4206 77.014 22.6939 75.3543 22.6939H64.5926ZM70.7996 17.8403H73.7021C74.7441 17.8403 75.5255 17.6508 76.0465 17.2719C76.5674 16.8856 76.8279 16.3172 76.8279 15.5665C76.8279 15.0418 76.7051 14.5973 76.4595 14.2329C76.2139 13.8685 75.8641 13.5916 75.4102 13.4021C74.9636 13.2126 74.424 13.1179 73.7914 13.1179H70.7996V17.8403ZM70.7996 9.35742H73.3449C73.8882 9.35742 74.3682 9.27361 74.785 9.10599C75.2018 8.93837 75.5255 8.69788 75.7562 8.38451C75.9944 8.06385 76.1135 7.67395 76.1135 7.21483C76.1135 6.5225 75.8604 5.99414 75.3543 5.62975C74.8483 5.25808 74.2082 5.07224 73.4342 5.07224H70.7996V9.35742Z" fill="#F5F5F5"/>
<path d="M107.74 11.5C107.74 13.9924 107.245 16.0949 106.255 17.8075C105.265 19.5128 103.929 20.8064 102.247 21.6882C100.565 22.5627 98.69 23 96.621 23C94.5371 23 92.6542 22.5591 90.9722 21.6773C89.2977 20.7882 87.9655 19.491 86.9756 17.7856C85.9932 16.073 85.5021 13.9778 85.5021 11.5C85.5021 9.0076 85.9932 6.90875 86.9756 5.20342C87.9655 3.49081 89.2977 2.19724 90.9722 1.32272C92.6542 0.440906 94.5371 0 96.621 0C98.69 0 100.565 0.440906 102.247 1.32272C103.929 2.19724 105.265 3.49081 106.255 5.20342C107.245 6.90875 107.74 9.0076 107.74 11.5ZM101.354 11.5C101.354 10.1591 101.172 9.02947 100.807 8.11122C100.45 7.18568 99.918 6.48606 99.211 6.01236C98.5114 5.53137 97.6481 5.29087 96.621 5.29087C95.594 5.29087 94.7269 5.53137 94.0199 6.01236C93.3203 6.48606 92.7882 7.18568 92.4235 8.11122C92.0663 9.02947 91.8876 10.1591 91.8876 11.5C91.8876 12.8409 92.0663 13.9742 92.4235 14.8997C92.7882 15.818 93.3203 16.5176 94.0199 16.9986C94.7269 17.4723 95.594 17.7091 96.621 17.7091C97.6481 17.7091 98.5114 17.4723 99.211 16.9986C99.918 16.5176 100.45 15.818 100.807 14.8997C101.172 13.9742 101.354 12.8409 101.354 11.5Z" fill="#F5F5F5"/>
<path d="M110.612 22.6939V0.306084H120.48C122.177 0.306084 123.662 0.608524 124.935 1.2134C126.207 1.81828 127.197 2.68916 127.904 3.82605C128.611 4.96293 128.965 6.32573 128.965 7.91445C128.965 9.51775 128.6 10.8696 127.871 11.9701C127.149 13.0705 126.133 13.9013 124.823 14.4625C123.521 15.0236 121.999 15.3042 120.257 15.3042H114.363V10.5817H119.007C119.736 10.5817 120.358 10.4943 120.871 10.3194C121.392 10.1372 121.79 9.84933 122.066 9.4558C122.348 9.06226 122.49 8.54848 122.49 7.91445C122.49 7.27313 122.348 6.75206 122.066 6.35124C121.79 5.94312 121.392 5.64433 120.871 5.45485C120.358 5.25808 119.736 5.1597 119.007 5.1597H116.819V22.6939H110.612ZM124.008 12.4183L129.724 22.6939H122.981L117.399 12.4183H124.008Z" fill="#F5F5F5"/>
<path d="M146.458 7.69582C146.361 7.30957 146.209 6.97069 146 6.67918C145.792 6.38039 145.532 6.12896 145.219 5.92491C144.914 5.71356 144.557 5.55688 144.147 5.45485C143.745 5.34553 143.303 5.29087 142.819 5.29087C141.777 5.29087 140.887 5.53501 140.151 6.02329C139.421 6.51157 138.863 7.21483 138.476 8.13308C138.097 9.05133 137.907 10.1591 137.907 11.4563C137.907 12.7681 138.089 13.8904 138.454 14.8232C138.818 15.756 139.362 16.4702 140.084 16.9658C140.806 17.4613 141.702 17.7091 142.774 17.7091C143.719 17.7091 144.504 17.5743 145.13 17.3047C145.762 17.035 146.235 16.6524 146.547 16.1568C146.86 15.6613 147.016 15.0783 147.016 14.4078L148.088 14.5171H142.863V10.1882H153V13.2928C153 15.3333 152.557 17.0787 151.672 18.529C150.793 19.972 149.58 21.0797 148.032 21.8522C146.492 22.6174 144.724 23 142.729 23C140.504 23 138.551 22.5372 136.869 21.6117C135.187 20.6862 133.873 19.3671 132.928 17.6545C131.99 15.9419 131.521 13.9049 131.521 11.5437C131.521 9.69265 131.808 8.05291 132.381 6.62452C132.961 5.19613 133.765 3.99002 134.792 3.00618C135.819 2.01505 137.006 1.26806 138.353 0.765209C139.7 0.25507 141.144 0 142.685 0C144.039 0 145.297 0.189481 146.458 0.568442C147.627 0.940114 148.657 1.47212 149.55 2.16445C150.451 2.84949 151.177 3.66207 151.727 4.60219C152.278 5.5423 152.613 6.57351 152.732 7.69582H146.458Z" fill="#F5F5F5"/>
</svg>
